# File created by Blade
# Date/Time:  Thu Jan 22 16:16:06 2015
# Frame Rate: 120.000 fps
#------------------------------------------------------
:FULLY-SPECIFIED
:DEGREES
857
root 1.026256 34.578861 -6.522269 31.039377 7.508054 0.138754
RightUpLeg -28.448789 -22.000442 -12.143372
RightLeg -8.696948 -0.000000 0.000000
RightFoot -0.710384 -28.097666 32.635994
RightToeBase 14.715373 -0.000000 -0.000000
LeftUpLeg -37.634296 10.489347 18.852100
LeftLeg -4.196004 -0.000000 0.000000
LeftFoot 7.174866 15.543934 -33.313377
LeftToeBase 12.139873 -0.000000 -0.000000
Spine 76.278472 -2.059396 -10.109643
RightShoulder 22.511489 22.589516 -50.619118
RightArm 44.926028 8.760284 59.765456
RightForeArm -24.400819 -0.000000 53.833269
RightHand 9.189410 -0.000000 -19.751108
RightHandThumb1 -24.326973 -0.000000 -32.862282
LeftShoulder 11.382154 23.918624 41.842060
LeftArm 80.709493 -29.466283 -56.003704
LeftForeArm 51.700323 0.000000 25.332002
LeftHand -21.221136 -0.000000 31.221729
LeftHandThumb1 -26.253704 0.000000 33.147579
Head -4.091227 26.389175 -22.790468
858
root 1.031777 34.579613 -6.512138 30.711482 7.807163 0.123484
RightUpLeg -27.982383 -22.038964 -12.240145
RightLeg -8.640845 -0.000000 0.000000
RightFoot -0.886347 -28.172356 32.664693
RightToeBase 14.790305 -0.000000 -0.000000
LeftUpLeg -37.454193 10.208168 19.002025
LeftLeg -4.129190 -0.000000 0.000000
LeftFoot 7.177146 15.432804 -33.268212
LeftToeBase 12.174398 -0.000000 -0.000000
Spine 76.094353 -1.897611 -10.014345
RightShoulder 22.476456 22.488826 -50.711977
RightArm 45.015198 8.473910 59.857344
RightForeArm -24.636520 -0.000000 53.936737
RightHand 9.082014 -0.000000 -19.747578
RightHandThumb1 -24.326973 -0.000000 -32.862282
LeftShoulder 11.462931 24.387831 41.570086
LeftArm 80.848245 -29.580522 -55.846788
LeftForeArm 51.479822 0.000000 24.997348
LeftHand -21.093156 -0.000000 31.049201
LeftHandThumb1 -26.253704 0.000000 33.147579
Head -3.949310 26.502422 -22.823503
859
root 1.041378 34.579673 -6.500461 30.378402 8.128261 0.120642
RightUpLeg -27.500526 -22.134172 -12.327071
RightLeg -8.588988 -0.000000 0.000000
RightFoot -1.045927 -28.208112 32.732853
RightToeBase 14.751113 -0.000000 -0.000000
LeftUpLeg -37.261300 9.856811 19.175512
LeftLeg -4.097333 -0.000000 0.000000
LeftFoot 7.192379 15.374191 -33.149365
LeftToeBase 12.226644 -0.000000 -0.000000
Spine 75.935389 -1.712993 -9.864168
RightShoulder 22.407983 22.245105 -50.780178
RightArm 45.222853 8.241103 59.827754
RightForeArm -24.643460 0.000000 53.986508
RightHand 9.110404 -0.000000 -19.709789
RightHandThumb1 -24.326973 -0.000000 -32.862282
LeftShoulder 11.588038 24.794166 41.346133
LeftArm 80.983778 -29.723715 -55.646563
LeftForeArm 51.272433 -0.000000 24.657750
LeftHand -21.164514 -0.000000 30.796181
LeftHandThumb1 -26.253704 0.000000 33.147579
Head -3.735902 26.520936 -22.761188
860
root 1.054503 34.579623 -6.489860 30.087400 8.431316 0.140595
RightUpLeg -27.059212 -22.220855 -12.446076
RightLeg -8.529415 -0.000000 0.000000
RightFoot -1.198955 -28.276403 32.809183
RightToeBase 14.632274 -0.000000 -0.000000
LeftUpLeg -37.103035 9.534420 19.295450
LeftLeg -4.053886 -0.000000 0.000000
LeftFoot 7.260667 15.229731 -32.925763
LeftToeBase 12.094597 -0.000000 -0.000000
Spine 75.784000 -1.566369 -9.820582
RightShoulder 22.336946 22.135170 -50.903451
RightArm 45.465611 8.001278 59.852466
RightForeArm -24.763842 -0.000000 54.013848
RightHand 8.999775 -0.000000 -19.605462
RightHandThumb1 -24.326973 -0.000000 -32.862282
LeftShoulder 11.697493 25.339376 41.183629
LeftArm 81.134157 -29.963564 -55.587215
LeftForeArm 50.781618 -0.000000 24.399342
LeftHand -21.116110 0.000000 30.720635
LeftHandThumb1 -26.253704 0.000000 33.147579
Head -3.640468 26.549029 -22.831763
